<svg width="30" height="30" viewBox="0 0 50 50" fill="none" xmlns="http://www.w3.org/2000/svg">
<path d="M49.4005 40.6629L29.0938 4.61459C27.3623 1.46632 22.6398 1.46632 20.9081 4.61459L0.601524 40.6629C-1.13 43.8111 1.07381 47.7466 4.69437 47.7466H45.1503C48.9282 47.5892 51.132 43.8111 49.4005 40.6629Z" fill="#E24C4B"/>
<path d="M25.0009 6.9758L45.3076 43.0241H4.69434L25.0009 6.9758Z" fill="white"/>
<path d="M21.6955 23.5046L22.9549 31.8476C23.1123 32.7921 23.8993 33.5792 25.0013 33.5792C25.9458 33.5792 26.8903 32.7921 27.0477 31.8476L28.3071 23.5046C28.6219 21.4581 27.0477 19.7266 25.0013 19.7266C22.9548 19.7265 21.538 21.4581 21.6955 23.5046Z" fill="#E24C4B"/>
<path d="M25.0011 39.0888C26.0444 39.0888 26.8901 38.243 26.8901 37.1997C26.8901 36.1564 26.0444 35.3107 25.0011 35.3107C23.9578 35.3107 23.1121 36.1564 23.1121 37.1997C23.1121 38.243 23.9578 39.0888 25.0011 39.0888Z" fill="#E24C4B"/>
</svg>
